<?xml version="1.0" encoding="utf-8"?>
<!-- Generator: Adobe Illustrator 28.1.0, SVG Export Plug-In . SVG Version: 6.00 Build 0)  -->
<svg version="1.1" id="Layer_1" xmlns="http://www.w3.org/2000/svg" xmlns:xlink="http://www.w3.org/1999/xlink" x="0px" y="0px"
	 viewBox="0 0 39 44" style="enable-background:new 0 0 39 44;" xml:space="preserve">
<style type="text/css">
	.st0{fill:#910811;}
	.st1{stroke:#F2F2F2;stroke-width:0.655;stroke-miterlimit:10;}
</style>
<path d="M21,27.2c0.1,2,0.1,4.4-0.7,5.2c-0.1,0.1-0.3,0.2-0.4,0.2c-0.2,0-0.3,0-0.4-0.1c-0.3-0.1-0.5-0.3-0.7-0.6
	c-0.2-0.2-0.3-0.5-0.3-0.8c-0.1-1.3,0.6-2.5,1.6-3.6c0-0.3,0-0.7,0-1c-0.1,0.3-0.2,0.5-0.4,0.7c-0.2,0.2-0.4,0.4-0.6,0.5
	c-1.1,0.5-2.1-0.9-1.7-2.9c0.3-2,1.1-2.9,1.7-3.2c0.6-0.3,0.9,0,1.1,0.5c0-0.3,0.1-0.6,0.1-0.9c0-0.3,0.1-0.3,0.3-0.2
	c0.2,0.2,0.4,0.4,0.5,0.6c0.1,0.2,0.1,0.5,0.1,0.8c0,0.9-0.1,2.8-0.1,4.2c0.7-0.8,1.2-1.8,1.4-2.9c0-0.1,0.1-0.2,0.2-0.1
	c0.1,0.3,0.1,0.6,0.1,0.8C22.5,25.5,21.8,26.4,21,27.2z M19.5,22.2c-0.4,0.1-0.9,1.4-1.1,2.8c-0.2,1.4,0.2,2.5,0.7,2.3
	c0.5-0.2,0.8-1.3,0.9-2.7C20.1,22.9,19.8,22,19.5,22.2L19.5,22.2z M19.5,32c0.3,0.2,0.7-1.6,0.6-3.8C18.9,29.8,19.1,31.8,19.5,32
	L19.5,32z"/>
<path d="M25.3,18.9c0-0.2,0.1-0.3,0.3-0.2c0.2,0.2,0.4,0.4,0.5,0.6c0.1,0.2,0.1,0.5,0.1,0.8c0,0.8-0.2,1.9-0.2,2.7
	c0,0.8,0.2,1.4,0.6,1.2c0.4-0.2,0.8-1.4,0.8-2.5c0-0.1,0.1-0.2,0.2-0.1c0.2,0.2,0.3,0.5,0.2,0.8c0,0.8-0.5,1.9-1.2,2.2
	c-0.1,0.1-0.3,0.1-0.4,0.1c-0.1,0-0.3,0-0.4-0.1c-0.1-0.1-0.3-0.1-0.4-0.2s-0.2-0.2-0.2-0.4c-0.2,0.7-0.5,1.4-1.1,1.7
	c-1.2,0.5-2.1-1-1.8-2.9c0.3-2,1.1-2.9,1.7-3.2c0.6-0.3,1,0.1,1.2,0.5C25.2,19.5,25.2,19.2,25.3,18.9z M24.5,19.8
	c-0.4,0.1-1,1.4-1.1,2.8C23.2,24,23.5,25.2,24,25c0.5-0.2,0.8-1.3,0.9-2.7C25.1,20.5,24.9,19.7,24.5,19.8z"/>
<path d="M32.2,19.3c0-0.2,0.2-0.2,0.2-0.1c0.2,0.3,0.2,0.6,0.2,0.9c0,0.5-0.2,1-0.5,1.4c-0.3,0.4-0.7,0.7-1.1,1
	c-0.9,0.5-1.3,0.5-2,0.3c-0.3-0.1-0.6-0.3-0.8-0.6c-0.1,1.3-0.2,2.9-0.1,4.5c0,0.1-0.1,0.2-0.2,0.1c-0.3-0.2-0.5-0.5-0.6-1.4
	c-0.2-1.4,0.1-6.3,0.4-7.7c0.1-0.2,0.2-0.2,0.3-0.1c0.1,0.2,0.3,0.3,0.3,0.5c0.3-0.7,0.9-1.4,1.7-1.1c0.8,0.3,1.1,1.6,1.1,2.8
	c0,0.8-0.1,1.6-0.5,2.3C31.8,21.6,32.2,20.3,32.2,19.3z M29.2,22.4c0.5,0.1,0.9-1.1,1-2.6c0-1.2-0.3-2.3-0.7-2.3c-0.4,0-0.9,1-1,2.2
	c0,0.3-0.1,0.6-0.1,0.9C28.4,21.5,28.7,22.3,29.2,22.4z"/>
<path d="M12.8,10.9c-0.6,4.8-1.5,9.6-2.7,14.4L9.4,28c-0.4,1.3-0.7,2.4-1,3.2c-0.8,2.3-1.1,3.1-1.7,3c-0.3,0-0.4-0.3-0.2-0.7
	c0.7-2.3,1.4-4.7,1.9-7L9,24.2c1.1-5,1.9-9.8,2.4-13.6c0.2-1.3,1.1-5.5,2.2-6.8c-0.2,1-0.2,2-0.2,3.1L12.8,10.9z"/>
<path d="M3.5,29.8c0.5,0.4,1.4,0,1.8,0c0,0,0.1,0,0.1,0c0,0,0.1,0,0.1,0c0,0,0,0,0.1,0.1c0,0,0,0.1,0,0.1c0,0.1-0.1,0.3-0.2,0.3
	c-0.3,0.2-0.7,0.4-1.1,0.4c-0.1,0-0.2,0-0.3,0.1c-0.1,0.1-0.2,0.1-0.2,0.2c0,0.1,0,0.1,0.1,0.1c1.4,0.1,2-0.7,2-1.3
	c0-0.4-0.2-0.6-0.5-0.6c-0.3,0-1.2,0.4-1.5,0.1c-0.5-0.6-0.1-2.3,0.2-2.3c0.3,0,0.2,0.7,0.4,1c0.1,0.3,0.3,0.4,0.5,0.4
	s0.1,0,0.1-0.1c-0.1-0.3-0.1-0.5-0.2-0.8c0-0.1,0-0.2-0.1-0.3c-0.1-0.1-0.1-0.2-0.2-0.3c-0.2-0.1-0.4-0.2-0.6-0.1
	c-0.3,0-0.4,0.3-0.6,0.6C3,27.9,3,28.4,3,28.9c-0.2-0.3-0.4-0.6-0.5-0.9c-0.3-0.6-0.6-1.3-0.7-1.9c-0.2-0.7-0.3-1.3-0.5-2
	c-0.1-0.7-0.3-1.4-0.4-2c-0.4-2.7-0.1-5.5,0.7-8.1c0.9-2.6,2.3-5,4.2-6.9c1.9-2,4.2-3.4,6.8-4.3c1.3-0.4,2.6-0.7,3.9-0.8
	c1.3-0.1,2.7,0,4,0.2c2.6,0.4,5.2,1.4,7.4,2.9C29,5.5,30.1,6.4,31,7.4c0.9,1,1.8,2,2.5,3.2c1.3,2.1,2.5,4.7,2.6,6.9
	c0,1.1-0.5,2.4-1.5,2.8c-0.7,0.3-1.3-0.4-1.5-1.7c1.2,0.3,1.9-0.4,2.1-1.4c0.2-0.9,0-1.7-0.4-1.9c-0.3-0.2-0.7-0.3-1-0.3
	c-0.8-0.1-1.8,1.1-1.8,3.1c-0.1,2,1.2,3.3,2.7,2.5c0.5-0.3,0.9-0.6,1.2-1.1c0.3-0.5,0.5-1,0.5-1.6c0.2-1.6-0.5-5.1-1.9-8
	c-0.7-1.3-1.5-2.5-2.4-3.6c-0.5-0.6-1-1.1-1.5-1.6c-0.5-0.5-1.1-1-1.7-1.4c-1.2-0.9-2.5-1.6-3.9-2.1c-1.4-0.5-2.8-0.9-4.3-1.1
	c-2.9-0.3-5.9,0-8.7,1.1C9.4,2.2,6.9,3.8,4.9,6C3,8.1,1.5,10.7,0.7,13.5s-1,5.7-0.4,8.6c0.1,0.7,0.3,1.4,0.5,2.1
	c0.2,0.7,0.4,1.4,0.6,2c0.2,0.7,0.5,1.3,0.9,1.9C2.6,28.7,2.9,29.4,3.5,29.8z M33.1,18c0-1.4,0.7-2.7,1.1-2.6
	c0.4,0.1,0.3,0.8,0.1,1.5c-0.2,0.7-0.4,1.4-1.2,1.3C33.1,18.2,33.1,18.1,33.1,18z"/>
<path d="M7.1,25.9c-0.2-0.5-0.4-0.8-0.6-0.9c-0.2-0.1-0.2,0-0.2,0.1c0,0.2,0.1,0.4,0.1,0.6c0-0.1-0.1-0.1-0.2-0.2
	c-0.1,0-0.1-0.1-0.2-0.1c-0.1,0-0.2,0-0.2,0c-0.1,0-0.1,0.1-0.2,0.1c-0.3,0.3-0.5,1.1-0.3,2.2C5.5,29,6.4,29.7,7,29.2
	c0.1-0.2,0.2-0.4,0.3-0.6c0.2,0.6,2.1,5.3,2.3,5.7c0.1,0.1,0.1,0.2,0.2,0.3c0.1,0.1,0.2,0.1,0.4,0.2c0.2,0,0.1,0,0.1-0.1
	C9.5,33,7.4,26.9,7.1,25.9z M6.8,28.9c-0.2,0.2-0.7-0.4-0.9-1.2c-0.2-0.8-0.1-1.7,0.1-1.8c0.2-0.2,0.5,0.3,0.8,1.3
	C7,28,7.1,28.7,6.8,28.9z"/>
<path class="st0" d="M26.3,14.3c-0.2-0.6-0.7-0.4-2.6-0.1c-0.6,0.1-1.5,0.4-2.5,0.7l-2,0.7c-1,0.4-2.1,0.8-3.2,1.2
	c-0.2-1.5-0.5-2.8-0.7-4.1l-0.8-5.2c-0.4-1.2-0.7-2.5-0.9-3.8c-0.8,1.9-0.3,7.4,0,9c0.2,1.4,0.5,3,0.7,4.7c-1.9,0.8-3.8,1.7-5.6,2.7
	l-3,1.4c-0.7,0.5-1.4,1-2.1,1.3c1.2,0.4,4.3-0.8,5.2-1.3c1.6-0.9,3.6-1.8,5.6-2.7c0.5,3.5,0.9,7.3,1.3,11.3l0.2,3.2
	c0.2,3,0.3,6.2,0.3,9.2c0,0.6,0.2,0.8,0.5,0.7c0.7-0.2,0.7-1.2,0.9-4.3c0-1.1,0-2.6,0-4.3l-0.2-3.5c-0.3-4.1-0.7-8.8-1.3-12.9
	c0.9-0.4,1.7-0.7,2.6-1.1l1.8-0.7c1.7-0.6,3.6-1.2,5.3-1.6C26.2,14.7,26.4,14.5,26.3,14.3z"/>
<path class="st1" d="M36.5,23.8c0.8,0,1.5-0.7,1.5-1.5s-0.7-1.5-1.5-1.5s-1.5,0.7-1.5,1.5S35.7,23.8,36.5,23.8z"/>
<path d="M36.2,22.6v0.7h-0.4v-1.9h0.6c0.2,0,0.4,0,0.6,0.1c0.1,0.1,0.2,0.2,0.2,0.4c0,0.1,0,0.3-0.1,0.4c-0.1,0.1-0.2,0.2-0.3,0.2
	l0.6,0.8h-0.5l-0.5-0.7L36.2,22.6z M36.2,22.3h0.1c0.1,0,0.2,0,0.3-0.1c0,0,0.1-0.1,0.1-0.1s0-0.1,0-0.1c0,0,0-0.1,0-0.1
	c0,0,0-0.1-0.1-0.1c-0.1,0-0.2-0.1-0.3-0.1h-0.1V22.3z"/>
</svg>
