<?xml version="1.0" encoding="UTF-8"?><svg id="uuid-4eef4c07-8920-464b-9bc4-66de5fad795f" xmlns="http://www.w3.org/2000/svg" viewBox="0 0 226.02 241.42"><g id="uuid-888717d3-52f6-45a9-9ddd-ececbe92c74c"><path d="M196,241.42h-21.8c-4.41,0-8.3-2.88-9.58-7.11l-50.39-166.92c-.16-.53-.65-.9-1.21-.9s-1.06.37-1.22.9l-23.88,79.11c23.78,2.73,42.25,22.93,42.25,47.45,0,.7-.57,1.27-1.27,1.27h-55.69l-11.8,39.09c-1.28,4.23-5.17,7.11-9.57,7.11h-21.81c-20.44,0-34.9-19.99-28.49-39.4L61.42,20.6C65.48,8.31,76.97,0,89.91,0h46.21c12.95,0,24.43,8.31,28.49,20.6l59.88,181.42c6.41,19.41-8.05,39.4-28.49,39.4Z" fill="currentColor"/></g></svg>