<?xml version="1.0" encoding="UTF-8"?><svg id="uuid-73179097-4dea-4dc5-a50e-7bfb5b0104f4" xmlns="http://www.w3.org/2000/svg" viewBox="0 0 136.61 132.48"><g id="uuid-1715f4fe-dbf5-43bd-b433-a50859f7db6e"><path d="M136.61,126.94l-1.92-.7c.38.02.77.05,1.15.09.26.19.52.4.77.61Z" style=" stroke-width:0px;"/><text transform="translate(11.29 50.83) rotate(-69.31)" style=" font-family:Inter-Regular, Inter; font-size:12.87px; font-variation-settings:&apos;wght&apos; 400, &apos;slnt&apos; 0;"><tspan x="0" y="0">A</tspan></text><text transform="translate(15.09 41.13) rotate(-58.03)" style=" font-family:Inter-Regular, Inter; font-size:12.87px; font-variation-settings:&apos;wght&apos; 400, &apos;slnt&apos; 0;"><tspan x="0" y="0">G</tspan></text><text transform="translate(21.33 31.57) rotate(-46.66)" style=" font-family:Inter-Regular, Inter; font-size:12.87px; font-variation-settings:&apos;wght&apos; 400, &apos;slnt&apos; 0;"><tspan x="0" y="0">A</tspan></text><text transform="translate(28.96 23.82) rotate(-35.72)" style=" font-family:Inter-Regular, Inter; font-size:12.87px; font-variation-settings:&apos;wght&apos; 400, &apos;slnt&apos; 0;"><tspan x="0" y="0">P</tspan></text><text transform="translate(37.48 17.97) rotate(-25.22)" style=" font-family:Inter-Regular, Inter; font-size:12.87px; font-variation-settings:&apos;wght&apos; 400, &apos;slnt&apos; 0;"><tspan x="0" y="0">E</tspan></text><text transform="translate(46.6 14.01) rotate(-16.94)" style=" font-family:Inter-Regular, Inter; font-size:12.87px; font-variation-settings:&apos;wght&apos; 400, &apos;slnt&apos; 0;"><tspan x="0" y="0"> </tspan></text><text transform="translate(52.21 12.25) rotate(-7.83)" style=" font-family:Inter-Regular, Inter; font-size:12.87px; font-variation-settings:&apos;wght&apos; 400, &apos;slnt&apos; 0;"><tspan x="0" y="0">C</tspan></text><text transform="translate(63.61 10.9) rotate(4.03)" style=" font-family:Inter-Regular, Inter; font-size:12.87px; font-variation-settings:&apos;wght&apos; 400, &apos;slnt&apos; 0;"><tspan x="0" y="0">H</tspan></text><text transform="translate(75.23 12) rotate(15.5)" style=" font-family:Inter-Regular, Inter; font-size:12.87px; font-variation-settings:&apos;wght&apos; 400, &apos;slnt&apos; 0;"><tspan x="0" y="0">R</tspan></text><text transform="translate(85.22 15.12) rotate(23.94)" style=" font-family:Inter-Regular, Inter; font-size:12.87px; font-variation-settings:&apos;wght&apos; 400, &apos;slnt&apos; 0;"><tspan x="0" y="0">I</tspan></text><text transform="translate(90.4 17.41) rotate(32.32)" style=" font-family:Inter-Regular, Inter; font-size:12.87px; font-variation-settings:&apos;wght&apos; 400, &apos;slnt&apos; 0;"><tspan x="0" y="0">S</tspan></text><text transform="translate(99.07 23.13) rotate(43.08)" style=" font-family:Inter-Regular, Inter; font-size:12.87px; font-variation-settings:&apos;wght&apos; 400, &apos;slnt&apos; 0;"><tspan x="0" y="0">T</tspan></text><text transform="translate(106.49 30.54) rotate(51.41)" style=" font-family:Inter-Regular, Inter; font-size:12.87px; font-variation-settings:&apos;wght&apos; 400, &apos;slnt&apos; 0;"><tspan x="0" y="0">I</tspan></text><text transform="translate(110.05 34.95) rotate(60.01)" style=" font-family:Inter-Regular, Inter; font-size:12.87px; font-variation-settings:&apos;wght&apos; 400, &apos;slnt&apos; 0;"><tspan x="0" y="0">A</tspan></text><text transform="translate(115.32 44.43) rotate(71.84)" style=" font-family:Inter-Regular, Inter; font-size:12.87px; font-variation-settings:&apos;wght&apos; 400, &apos;slnt&apos; 0;"><tspan x="0" y="0">N</tspan></text><text transform="translate(118.62 55.86) rotate(81.11)" style=" font-family:Inter-Regular, Inter; font-size:12.87px; font-variation-settings:&apos;wght&apos; 400, &apos;slnt&apos; 0;"><tspan x="0" y="0"> </tspan></text><text transform="translate(119.5 61.65) rotate(89.07)" style=" font-family:Inter-Regular, Inter; font-size:12.87px; font-variation-settings:&apos;wght&apos; 400, &apos;slnt&apos; 0;"><tspan x="0" y="0">B</tspan></text><text transform="translate(119.43 72.19) rotate(100.62)" style=" font-family:Inter-Regular, Inter; font-size:12.87px; font-variation-settings:&apos;wght&apos; 400, &apos;slnt&apos; 0;"><tspan x="0" y="0">A</tspan></text><text transform="translate(117.19 82.83) rotate(111.74)" style=" font-family:Inter-Regular, Inter; font-size:12.87px; font-variation-settings:&apos;wght&apos; 400, &apos;slnt&apos; 0;"><tspan x="0" y="0">R</tspan></text><text transform="translate(113.01 92.41) rotate(120.25)" style=" font-family:Inter-Regular, Inter; font-size:12.87px; font-variation-settings:&apos;wght&apos; 400, &apos;slnt&apos; 0;"><tspan x="0" y="0"> </tspan></text><text transform="translate(110.04 97.5) rotate(128.7)" style=" font-family:Inter-Regular, Inter; font-size:12.87px; font-variation-settings:&apos;wght&apos; 400, &apos;slnt&apos; 0;"><tspan x="0" y="0">P</tspan></text><text transform="translate(103.42 105.44) rotate(139.4)" style=" font-family:Inter-Regular, Inter; font-size:12.87px; font-variation-settings:&apos;wght&apos; 400, &apos;slnt&apos; 0;"><tspan x="0" y="0">R</tspan></text><text transform="translate(95.38 112.04) rotate(149.88)" style=" font-family:Inter-Regular, Inter; font-size:12.87px; font-variation-settings:&apos;wght&apos; 400, &apos;slnt&apos; 0;"><tspan x="0" y="0">E</tspan></text><text transform="translate(86.74 116.84) rotate(160.44)" style=" font-family:Inter-Regular, Inter; font-size:12.87px; font-variation-settings:&apos;wght&apos; 400, &apos;slnt&apos; 0;"><tspan x="0" y="0">P</tspan></text><text transform="translate(76.83 120.01) rotate(168.95)" style=" font-family:Inter-Regular, Inter; font-size:12.87px; font-variation-settings:&apos;wght&apos; 400, &apos;slnt&apos; 0;"><tspan x="0" y="0"> </tspan></text><text transform="translate(71.04 121.12) rotate(177.17)" style=" font-family:Inter-Regular, Inter; font-size:12.87px; font-variation-settings:&apos;wght&apos; 400, &apos;slnt&apos; 0;"><tspan x="0" y="0">E</tspan></text><text transform="translate(61.17 121.44) rotate(-172.44)" style=" font-family:Inter-Regular, Inter; font-size:12.87px; font-variation-settings:&apos;wght&apos; 400, &apos;slnt&apos; 0;"><tspan x="0" y="0">S</tspan></text><text transform="translate(50.9 119.87) rotate(-161.57)" style=" font-family:Inter-Regular, Inter; font-size:12.87px; font-variation-settings:&apos;wght&apos; 400, &apos;slnt&apos; 0;"><tspan x="0" y="0">T</tspan></text><text transform="translate(41.05 116.22) rotate(-153.01)" style=" font-family:Inter-Regular, Inter; font-size:12.87px; font-variation-settings:&apos;wght&apos; 400, &apos;slnt&apos; 0;"><tspan x="0" y="0"> </tspan></text><text transform="translate(35.82 113.55) rotate(-144.75)" style=" font-family:Inter-Regular, Inter; font-size:12.87px; font-variation-settings:&apos;wght&apos; 400, &apos;slnt&apos; 0;"><tspan x="0" y="0">2</tspan></text><text transform="translate(27.78 107.63) rotate(-134.32)" style=" font-family:Inter-Regular, Inter; font-size:12.87px; font-variation-settings:&apos;wght&apos; 400, &apos;slnt&apos; 0;"><tspan x="0" y="0">0</tspan></text><text transform="translate(20.82 100.12) rotate(-124.8)" style=" font-family:Inter-Regular, Inter; font-size:12.87px; font-variation-settings:&apos;wght&apos; 400, &apos;slnt&apos; 0;"><tspan x="0" y="0">1</tspan></text><text transform="translate(16.24 93.31) rotate(-115.55)" style=" font-family:Inter-Regular, Inter; font-size:12.87px; font-variation-settings:&apos;wght&apos; 400, &apos;slnt&apos; 0;"><tspan x="0" y="0">7</tspan></text><path d="M89.63,97.3h-6.62c-1.34,0-2.52-.87-2.91-2.16l-15.3-50.69c-.05-.16-.2-.27-.37-.27s-.32.11-.37.27l-7.25,24.02c7.22.83,12.83,6.96,12.83,14.41,0,.21-.17.39-.39.39h-16.91l-3.58,11.87c-.39,1.28-1.57,2.16-2.91,2.16h-6.62c-6.21,0-10.6-6.07-8.65-11.96l18.18-55.09c1.23-3.73,4.72-6.26,8.65-6.26h14.03c3.93,0,7.42,2.52,8.65,6.26l18.18,55.09c1.95,5.89-2.44,11.96-8.65,11.96Z" style=" stroke-width:0px;"/><rect x="3.63" y="59.26" width="3.35" height="16.4" style=" stroke-width:0px;"/><rect x="3.63" y="59.8" width="3.35" height="10.62" transform="translate(-59.8 70.42) rotate(-90)" style=" stroke-width:0px;"/></g></svg>