<?xml version="1.0" encoding="UTF-8"?><svg id="uuid-5210dd8b-f58f-4fe4-ab6f-844f9a4b9d26" xmlns="http://www.w3.org/2000/svg" viewBox="0 0 196.83 55.9"><g id="uuid-908e303b-9f8b-48b6-a572-6373024f8d94"><path d="M45.39,55.9h-5.05c-1.02,0-1.92-.67-2.22-1.65L26.45,15.61c-.04-.12-.15-.21-.28-.21s-.25.09-.28.21l-5.53,18.32c5.51.63,9.78,5.31,9.78,10.99,0,.16-.13.29-.29.29h-12.9l-2.73,9.05c-.3.98-1.2,1.65-2.22,1.65h-5.05c-4.73,0-8.08-4.63-6.6-9.12L14.22,4.77c.94-2.85,3.6-4.77,6.6-4.77h10.7c3,0,5.66,1.92,6.6,4.77l13.87,42.01c1.48,4.49-1.86,9.12-6.6,9.12Z" style=" stroke-width:0px;"/><path d="M75.21,13.49c-.17-.68-.43-1.27-.79-1.79-.36-.52-.8-.96-1.33-1.32-.53-.36-1.14-.64-1.84-.82-.7-.18-1.46-.28-2.29-.28-1.79,0-3.31.43-4.57,1.28-1.26.86-2.22,2.09-2.87,3.7-.66,1.61-.99,3.55-.99,5.83s.31,4.27.94,5.9,1.56,2.89,2.8,3.76c1.24.87,2.78,1.3,4.62,1.3,1.62,0,2.97-.24,4.05-.71,1.08-.47,1.89-1.14,2.42-2.01.54-.87.8-1.89.8-3.07l1.84.19h-8.97v-7.59h17.4v5.44c0,3.58-.76,6.63-2.27,9.17s-3.6,4.48-6.25,5.83c-2.65,1.35-5.69,2.02-9.11,2.02-3.82,0-7.17-.81-10.06-2.43-2.89-1.62-5.14-3.93-6.76-6.94s-2.42-6.57-2.42-10.71c0-3.25.5-6.12,1.49-8.62.99-2.5,2.37-4.62,4.13-6.35,1.76-1.73,3.8-3.04,6.11-3.93C63.61.44,66.09,0,68.73,0c2.33,0,4.49.33,6.49.99s3.77,1.59,5.31,2.8c1.54,1.21,2.78,2.64,3.73,4.28.95,1.65,1.52,3.46,1.72,5.42h-10.77Z" style=" stroke-width:0px;"/><path d="M100.39,39.79h-11.5L101.85.54h14.57l12.96,39.25h-11.5l-8.59-28.44h-.31l-8.59,28.44ZM98.24,24.3h21.62v7.97h-21.62v-7.97Z" style=" stroke-width:0px;"/><path d="M133.12,39.79V.54h16.94c2.91,0,5.46.58,7.65,1.72,2.18,1.15,3.88,2.77,5.1,4.85,1.21,2.08,1.82,4.52,1.82,7.3s-.62,5.25-1.87,7.3c-1.25,2.06-2.99,3.64-5.23,4.75-2.24,1.11-4.86,1.67-7.85,1.67h-10.12v-8.28h7.97c1.25,0,2.32-.22,3.21-.66.89-.44,1.57-1.07,2.05-1.89.48-.82.72-1.78.72-2.89s-.24-2.08-.72-2.88c-.48-.8-1.16-1.41-2.05-1.84-.89-.43-1.96-.64-3.21-.64h-3.76v30.74h-10.66Z" style=" stroke-width:0px;"/><path d="M168.54,39.79V.54h28.29v8.59h-17.63v6.75h16.18v8.59h-16.18v6.75h17.56v8.59h-28.21Z" style=" stroke-width:0px;"/><path d="M64.96,49.66h-1.11c-.04-.24-.12-.45-.24-.62-.12-.18-.26-.33-.43-.46-.17-.12-.36-.22-.56-.28-.21-.06-.43-.1-.66-.1-.42,0-.79.11-1.12.32-.33.21-.59.52-.78.93-.19.41-.29.9-.29,1.49s.1,1.09.29,1.5c.19.41.45.71.78.92.33.21.7.31,1.12.31.23,0,.45-.03.66-.09s.39-.16.56-.28c.17-.12.31-.27.43-.45s.2-.38.24-.62h1.11c-.06.36-.17.69-.34.99-.17.3-.39.56-.65.77-.26.22-.57.38-.9.5-.34.12-.71.18-1.11.18-.63,0-1.19-.15-1.68-.45-.49-.3-.88-.73-1.16-1.29-.28-.56-.42-1.23-.42-2s.14-1.44.43-2,.67-.99,1.17-1.29c.49-.3,1.05-.45,1.68-.45.39,0,.75.05,1.08.17s.64.27.9.48.49.47.66.77c.18.3.29.65.35,1.04Z" style=" stroke-width:0px;"/><path d="M68.27,54.56v-7.27h1.1v3.16h3.63v-3.16h1.1v7.27h-1.1v-3.17h-3.63v3.17h-1.1Z" style=" stroke-width:0px;"/><path d="M77.7,54.56v-7.27h2.59c.56,0,1.03.1,1.4.29.37.19.65.46.84.8.18.34.28.74.28,1.18s-.09.84-.28,1.17c-.19.34-.47.6-.84.79-.37.19-.84.28-1.4.28h-1.96v-.94h1.86c.35,0,.64-.05.87-.15s.39-.25.49-.44c.1-.19.16-.43.16-.7s-.05-.51-.16-.71c-.1-.2-.27-.36-.49-.46-.22-.11-.52-.16-.88-.16h-1.38v6.33h-1.1ZM81.29,51.28l1.8,3.28h-1.25l-1.76-3.28h1.21Z" style=" stroke-width:0px;"/><path d="M87.24,47.29v7.27h-1.1v-7.27h1.1Z" style=" stroke-width:0px;"/><path d="M94.81,49.2c-.04-.34-.19-.6-.47-.78-.27-.19-.62-.28-1.04-.28-.3,0-.56.05-.77.14-.22.09-.39.22-.51.38-.12.16-.18.35-.18.55,0,.17.04.32.12.45.08.12.19.23.32.31s.28.15.43.21c.15.06.3.1.44.14l.71.18c.23.06.47.13.71.23.24.1.47.22.68.38.21.16.38.36.51.59.13.23.19.51.19.84,0,.41-.11.78-.32,1.1-.21.32-.52.57-.92.76-.4.18-.89.28-1.45.28s-1.02-.09-1.41-.26c-.4-.17-.71-.42-.93-.74-.23-.32-.35-.7-.37-1.13h1.1c.02.26.11.48.26.66s.34.3.58.39c.24.08.49.13.78.13.31,0,.59-.05.83-.15.24-.1.43-.24.57-.41.14-.18.21-.38.21-.62,0-.22-.06-.39-.18-.53-.12-.14-.29-.25-.49-.34s-.44-.17-.7-.24l-.86-.23c-.58-.16-1.04-.39-1.38-.7s-.51-.71-.51-1.22c0-.42.11-.79.34-1.1.23-.31.54-.56.92-.73s.83-.26,1.31-.26.93.09,1.31.26.68.41.89.71c.22.3.33.65.34,1.04h-1.06Z" style=" stroke-width:0px;"/><path d="M98.92,48.24v-.94h5.63v.94h-2.27v6.33h-1.09v-6.33h-2.27Z" style=" stroke-width:0px;"/><path d="M108.88,47.29v7.27h-1.1v-7.27h1.1Z" style=" stroke-width:0px;"/><path d="M113.09,54.56h-1.17l2.62-7.27h1.27l2.62,7.27h-1.16l-2.06-5.95h-.06l-2.06,5.95ZM113.29,51.72h3.78v.92h-3.78v-.92Z" style=" stroke-width:0px;"/><path d="M127.35,47.29v7.27h-1.01l-3.7-5.33h-.07v5.33h-1.1v-7.27h1.02l3.7,5.34h.07v-5.34h1.09Z" style=" stroke-width:0px;"/><path d="M135.59,54.56v-7.27h2.66c.52,0,.94.08,1.28.25.34.17.59.4.76.69.17.29.25.61.25.97,0,.3-.06.56-.17.77s-.26.37-.45.5c-.19.12-.39.21-.61.27v.07c.24.01.48.09.71.23s.42.35.57.61c.15.26.23.58.23.96s-.09.71-.26,1c-.17.29-.44.53-.8.7-.36.17-.83.26-1.39.26h-2.79ZM136.69,50.44h1.47c.25,0,.47-.05.67-.14s.35-.23.47-.4.18-.38.18-.61c0-.3-.1-.55-.32-.76-.21-.2-.53-.31-.97-.31h-1.5v2.21ZM136.69,53.62h1.58c.53,0,.9-.1,1.13-.3.23-.2.34-.46.34-.76,0-.23-.06-.44-.17-.63-.12-.19-.28-.34-.5-.46-.21-.11-.47-.17-.76-.17h-1.62v2.33Z" style=" stroke-width:0px;"/><path d="M144.75,54.56h-1.17l2.62-7.27h1.27l2.62,7.27h-1.17l-2.05-5.95h-.06l-2.06,5.95ZM144.95,51.72h3.78v.92h-3.78v-.92Z" style=" stroke-width:0px;"/><path d="M153.13,54.56v-7.27h2.59c.56,0,1.03.1,1.4.29s.65.46.84.8c.18.34.28.74.28,1.18s-.09.84-.28,1.17c-.19.34-.46.6-.84.79-.37.19-.84.28-1.4.28h-1.96v-.94h1.86c.36,0,.64-.05.87-.15s.39-.25.49-.44c.1-.19.16-.43.16-.7s-.05-.51-.16-.71-.27-.36-.49-.46-.52-.16-.88-.16h-1.38v6.33h-1.1ZM156.73,51.28l1.8,3.28h-1.25l-1.76-3.28h1.21Z" style=" stroke-width:0px;"/><path d="M166.23,54.56v-7.27h2.59c.57,0,1.03.1,1.41.31.37.21.65.49.83.84s.28.76.28,1.2-.09.85-.28,1.21c-.19.36-.46.64-.84.85s-.84.31-1.4.31h-1.78v-.93h1.68c.36,0,.65-.06.87-.19s.39-.29.49-.51c.1-.21.16-.46.16-.73s-.05-.52-.16-.73c-.1-.21-.27-.38-.49-.5-.22-.12-.52-.18-.88-.18h-1.38v6.33h-1.1Z" style=" stroke-width:0px;"/><path d="M174.62,54.56v-7.27h2.59c.56,0,1.03.1,1.4.29s.65.46.84.8c.18.34.28.74.28,1.18s-.09.84-.28,1.17c-.19.34-.46.6-.84.79-.37.19-.84.28-1.4.28h-1.96v-.94h1.86c.36,0,.64-.05.87-.15s.39-.25.49-.44c.1-.19.16-.43.16-.7s-.05-.51-.16-.71-.27-.36-.49-.46-.52-.16-.88-.16h-1.38v6.33h-1.1ZM178.21,51.28l1.8,3.28h-1.25l-1.76-3.28h1.21Z" style=" stroke-width:0px;"/><path d="M183.07,54.56v-7.27h4.56v.94h-3.46v2.22h3.22v.94h-3.22v2.23h3.5v.94h-4.6Z" style=" stroke-width:0px;"/><path d="M191.1,54.56v-7.27h2.59c.57,0,1.03.1,1.41.31.37.21.65.49.83.84s.28.76.28,1.2-.09.85-.28,1.21c-.19.36-.46.64-.84.85s-.84.31-1.4.31h-1.78v-.93h1.68c.36,0,.65-.06.87-.19s.39-.29.49-.51c.1-.21.16-.46.16-.73s-.05-.52-.16-.73c-.1-.21-.27-.38-.49-.5-.22-.12-.52-.18-.88-.18h-1.38v6.33h-1.1Z" style=" stroke-width:0px;"/></g></svg>