<?xml version="1.0" encoding="UTF-8"?><svg id="uuid-e0f8aaba-ee0d-4258-b0a6-480ac7fa9999" xmlns="http://www.w3.org/2000/svg" viewBox="0 0 136.61 129.15"><g id="uuid-e3e26b4b-84b2-4dd0-9aa3-97783fc0dd7a"><path d="M136.61,125.3l-1.92-.7c.38.02.77.05,1.15.09.26.19.52.4.77.61Z" style=" stroke-width:0px;"/><path d="M11.82,47.77l-.42,1.11-7.54-6.52.41-1.09,9.97.09-.42,1.11-8.36-.17-.03.07,6.38,5.4ZM8.56,46.07l1.69-4.48.94.35-1.69,4.48-.94-.36Z" style=" stroke-width:0px;"/><path d="M13.62,29.69c-.31-.08-.62-.11-.91-.1-.29,0-.57.06-.84.16-.27.1-.51.24-.74.43s-.43.43-.61.72c-.29.47-.44.97-.44,1.51,0,.54.17,1.07.5,1.59s.84,1,1.53,1.43,1.34.68,1.96.74c.62.07,1.17-.02,1.66-.26.49-.24.88-.61,1.19-1.1.28-.45.44-.92.46-1.39.02-.47-.09-.91-.32-1.33-.24-.42-.6-.78-1.08-1.08l.25-.26-1.49,2.39-.85-.53,1.89-3.02.85.53c.65.41,1.14.9,1.45,1.48.31.58.44,1.2.41,1.85s-.25,1.29-.65,1.92c-.44.7-.99,1.22-1.65,1.54-.66.32-1.39.44-2.19.36-.79-.08-1.61-.39-2.45-.91-.63-.39-1.14-.83-1.54-1.31-.4-.48-.67-.99-.84-1.52-.16-.53-.2-1.07-.13-1.61.08-.54.27-1.07.59-1.58.26-.42.57-.77.92-1.06.35-.28.73-.5,1.14-.64.41-.14.83-.21,1.26-.2s.87.09,1.3.26l-.62.99Z" style=" stroke-width:0px;"/><path d="M22.37,28.82l-.82.86-4.45-8.92.8-.85,9.16,3.92-.82.86-7.65-3.37-.05.05,3.81,7.44ZM20.01,25.99l3.29-3.48.73.69-3.29,3.48-.73-.69Z" style=" stroke-width:0px;"/><path d="M29.88,21.52l-5.46-7.6,2.57-1.85c.6-.43,1.16-.67,1.69-.73s1.02.03,1.47.26c.44.23.83.57,1.15,1.02.32.45.52.92.61,1.42.08.5.01.99-.21,1.48-.22.49-.63.95-1.22,1.37l-1.84,1.32-.59-.82,1.81-1.3c.41-.29.69-.6.83-.92.15-.32.19-.64.13-.96-.06-.32-.2-.64-.42-.94s-.47-.54-.76-.69c-.29-.16-.6-.22-.95-.17s-.73.21-1.14.51l-1.62,1.16,4.88,6.78-.92.66Z" style=" stroke-width:0px;"/><path d="M38.5,15.84l-3.99-8.46,5.11-2.41.43.91-4.08,1.92,1.35,2.86,3.82-1.8.43.91-3.82,1.8,1.36,2.88,4.15-1.95.43.91-5.17,2.44Z" style=" stroke-width:0px;"/><path d="M59.92,3.05l-1.12.15c-.11-.31-.27-.58-.46-.8s-.43-.4-.68-.54-.53-.23-.83-.27c-.29-.05-.6-.05-.9,0-.56.08-1.05.29-1.46.63s-.72.81-.91,1.4c-.19.59-.23,1.28-.12,2.09s.34,1.46.68,1.98c.34.52.76.88,1.25,1.1s1.02.29,1.58.22c.31-.04.6-.12.87-.25.27-.12.51-.29.72-.48.21-.2.38-.43.51-.7s.21-.57.23-.9l1.12-.15c-.02.49-.11.93-.29,1.33-.17.41-.41.76-.7,1.07s-.64.56-1.03.75c-.39.19-.82.32-1.29.39-.79.11-1.52.01-2.19-.29-.67-.3-1.23-.78-1.68-1.45s-.74-1.48-.88-2.46-.07-1.85.18-2.61.66-1.38,1.23-1.85c.56-.47,1.24-.76,2.03-.87.47-.06.92-.06,1.35.02s.83.23,1.2.44c.37.22.69.49.96.84.27.34.49.75.64,1.21Z" style=" stroke-width:0px;"/><path d="M64.74,9.33l.66-9.33,1.13.08-.29,4.16,4.98.35.29-4.16,1.13.08-.66,9.33-1.13-.08.29-4.17-4.98-.35-.29,4.17-1.13-.08Z" style=" stroke-width:0px;"/><path d="M76.33,10.65l2.5-9.02,3.05.84c.7.2,1.25.48,1.63.84.39.36.63.79.73,1.26s.08.98-.07,1.51c-.15.53-.39.97-.72,1.32-.33.35-.75.58-1.27.69s-1.12.07-1.82-.13l-2.47-.68.27-.99,2.43.67c.48.13.89.17,1.22.11s.6-.2.81-.42.36-.51.46-.88c.1-.36.12-.7.06-1-.06-.31-.22-.58-.47-.81-.25-.23-.63-.41-1.11-.55l-1.92-.53-2.23,8.05-1.09-.3ZM81.69,7.78l1.1,4.67-1.27-.35-1.06-4.66,1.23.34Z" style=" stroke-width:0px;"/><path d="M91.09,5.85l-3.8,8.55-1.04-.46,3.8-8.55,1.04.46Z" style=" stroke-width:0px;"/><path d="M99.43,13.18c.2-.42.21-.84.01-1.27-.19-.42-.53-.79-1.01-1.09-.35-.22-.69-.36-1.02-.41-.33-.05-.63-.02-.91.08-.27.11-.49.29-.65.54-.13.21-.2.42-.19.64,0,.21.06.42.16.62s.21.39.35.56c.14.17.26.33.39.46l.67.72c.17.18.35.4.55.66.19.26.35.54.48.85.13.31.19.64.18.99,0,.35-.13.71-.37,1.08-.27.43-.63.74-1.07.95-.44.2-.94.27-1.49.21-.55-.07-1.14-.29-1.74-.68-.57-.36-1-.76-1.29-1.2-.3-.44-.46-.9-.49-1.38-.03-.48.08-.94.32-1.39l.99.63c-.16.31-.22.62-.16.93.05.31.19.59.4.86.21.27.48.5.79.7.37.23.73.38,1.1.44.37.06.7.04,1.01-.06s.55-.31.73-.59c.17-.26.23-.52.19-.78-.04-.26-.15-.51-.33-.77-.17-.25-.38-.51-.61-.76l-.8-.89c-.51-.57-.83-1.13-.99-1.69-.15-.56-.06-1.1.28-1.64.28-.44.64-.75,1.09-.93.45-.18.94-.23,1.46-.16s1.04.27,1.54.59c.51.32.91.7,1.19,1.13s.44.88.47,1.34-.07.9-.31,1.3l-.93-.59Z" style=" stroke-width:0px;"/><path d="M105.22,15.81l.69-.73,5.12,4.79-.69.73-2.15-2.01-5.7,6.1-.83-.77,5.7-6.1-2.15-2.01Z" style=" stroke-width:0px;"/><path d="M115.22,24.83l-7.31,5.84-.71-.89,7.31-5.84.71.89Z" style=" stroke-width:0px;"/><path d="M110.81,34.62l-.59-1.03,9.82-1.7.58,1.01-6.39,7.65-.59-1.03,5.42-6.36-.04-.06-8.22,1.52ZM114.19,33.17l2.39,4.15-.87.5-2.39-4.15.87-.5Z" style=" stroke-width:0px;"/><path d="M126.88,48l-8.89,2.92-.34-1.04,5.39-7.13-.03-.09-6.98,2.29-.35-1.08,8.89-2.92.34,1.04-5.4,7.16.03.09,7-2.3.35,1.06Z" style=" stroke-width:0px;"/><path d="M119.52,61.14l9.36-.15.05,3.27c.01.65-.09,1.19-.31,1.62s-.51.75-.88.96c-.37.21-.79.32-1.24.33-.4,0-.74-.06-1-.2-.26-.14-.47-.32-.63-.55s-.27-.47-.35-.74h-.09c-.01.29-.11.58-.29.87-.18.29-.44.54-.77.74-.34.2-.75.3-1.25.31-.47,0-.89-.09-1.27-.3s-.68-.54-.91-1c-.23-.46-.35-1.05-.36-1.79l-.05-3.38ZM120.54,62.26l.04,2.25c.01.74.16,1.26.46,1.57.29.31.64.46,1.06.45.32,0,.61-.09.88-.26.27-.17.48-.4.64-.7.16-.3.23-.66.23-1.06l-.04-2.3-3.25.05ZM124.78,62.19l.03,2.1c0,.34.08.65.22.92.14.27.33.49.58.65.25.16.53.24.86.23.41,0,.76-.16,1.04-.45s.42-.75.41-1.37l-.04-2.14-3.11.05Z" style=" stroke-width:0px;"/><path d="M119.15,72.03l.22-1.17,8.56,5.1-.22,1.15-9.83,1.65.22-1.17,8.26-1.3v-.07s-7.21-4.2-7.21-4.2ZM122.66,73.14l-.88,4.71-.99-.19.88-4.71.99.19Z" style=" stroke-width:0px;"/><path d="M119.04,87.89l-4.76.58.49-1.22,4.74-.55-.47,1.19ZM116.77,82.24l8.69,3.47-1.17,2.94c-.27.68-.61,1.19-1.01,1.53s-.85.54-1.33.59c-.48.05-.98-.03-1.5-.23-.51-.2-.92-.49-1.24-.86-.31-.37-.5-.81-.55-1.33-.05-.52.06-1.12.33-1.79l.95-2.38.95.38-.93,2.34c-.19.46-.27.87-.24,1.2s.13.62.33.85.47.41.82.55c.35.14.68.2.99.17.31-.03.6-.15.85-.38.26-.23.48-.58.67-1.05l.74-1.85-7.76-3.09.42-1.05Z" style=" stroke-width:0px;"/><path d="M109.33,96.74l7.3,5.85-1.98,2.47c-.46.57-.94.96-1.44,1.16-.5.2-.99.25-1.48.14-.49-.1-.95-.33-1.38-.67-.43-.34-.75-.75-.96-1.2s-.28-.95-.19-1.48c.08-.53.35-1.08.81-1.65l1.42-1.77.78.63-1.39,1.74c-.31.39-.5.76-.55,1.11-.06.35,0,.67.13.96.15.29.36.56.66.79.29.23.6.39.91.47.32.08.64.05.96-.09s.65-.4.96-.8l1.25-1.55-6.52-5.22.71-.88Z" style=" stroke-width:0px;"/><path d="M101.95,110.59l-4.48-1.69,1-.86,4.46,1.72-.97.83ZM102.56,104.54l6.09,7.1-2.4,2.06c-.55.48-1.09.77-1.61.89s-1,.08-1.46-.1c-.45-.18-.86-.48-1.22-.9-.36-.42-.59-.86-.7-1.33-.11-.47-.06-.95.13-1.44s.57-.97,1.12-1.44l1.94-1.66.67.78-1.92,1.64c-.38.33-.64.64-.77.95-.14.31-.17.61-.1.91.07.29.23.58.47.87.24.28.51.49.8.61.29.12.6.14.93.06.33-.08.69-.29,1.08-.62l1.51-1.3-5.44-6.34.86-.74Z" style=" stroke-width:0px;"/><path d="M94.4,110.96l4.7,8.09-4.88,2.83-.5-.87,3.91-2.26-1.59-2.73-3.65,2.12-.5-.87,3.65-2.12-1.6-2.75-3.97,2.3-.5-.87,4.95-2.87Z" style=" stroke-width:0px;"/><path d="M85.67,115.58l3.13,8.82-2.98,1.06c-.69.25-1.3.32-1.83.23s-.97-.31-1.34-.66c-.36-.35-.64-.78-.82-1.3s-.25-1.03-.19-1.53c.06-.5.27-.95.62-1.36s.87-.73,1.55-.98l2.14-.76.34.95-2.1.75c-.47.17-.83.39-1.05.65-.23.27-.36.56-.39.89s.02.67.14,1.02c.13.35.3.65.53.88s.52.38.86.43c.35.06.76,0,1.24-.17l1.88-.67-2.8-7.87,1.07-.38Z" style=" stroke-width:0px;"/><path d="M69.91,119.53l.46,9.35-5.64.28-.05-1,4.51-.22-.16-3.16-4.22.21-.05-1,4.22-.21-.16-3.18-4.58.23-.05-1,5.71-.28Z" style=" stroke-width:0px;"/><path d="M54.05,125.92c0,.47.17.85.52,1.16.35.31.81.49,1.37.57.41.05.78.04,1.1-.06s.59-.24.79-.45c.2-.21.32-.46.36-.76.03-.25,0-.47-.09-.66-.1-.19-.23-.36-.4-.5s-.36-.26-.55-.36-.38-.19-.54-.25l-.91-.38c-.23-.1-.49-.22-.77-.37-.28-.15-.55-.34-.8-.57s-.44-.5-.58-.83c-.14-.32-.18-.7-.12-1.14.07-.5.26-.94.57-1.31.32-.37.74-.64,1.27-.81.53-.17,1.15-.21,1.87-.12.66.09,1.22.27,1.68.55s.8.63,1.02,1.05c.22.42.32.89.29,1.4l-1.16-.15c.02-.35-.06-.66-.24-.91-.18-.26-.42-.46-.72-.61-.3-.15-.64-.25-1.01-.3-.43-.06-.82-.04-1.18.06-.36.1-.66.26-.89.48-.23.23-.37.51-.42.85-.04.31.01.57.16.79.15.22.35.4.62.56.26.16.55.3.87.44l1.1.48c.7.3,1.23.68,1.6,1.12.37.44.52.98.43,1.6-.07.52-.27.95-.6,1.3s-.75.6-1.26.75-1.06.19-1.65.11c-.6-.08-1.12-.26-1.55-.53-.44-.27-.77-.61-.99-1.02-.22-.4-.31-.84-.27-1.31l1.09.14Z" style=" stroke-width:0px;"/><path d="M47.67,125.95l-.32.95-6.66-2.22.32-.95,2.79.93,2.64-7.92,1.08.36-2.64,7.92,2.79.93Z" style=" stroke-width:0px;"/><path d="M35.03,111.34l-.47.67-4.47.98c-.52.11-.97.22-1.33.33-.36.1-.66.23-.91.38-.24.15-.45.34-.61.57-.19.27-.29.55-.3.83-.01.29.06.56.2.83.15.26.36.49.63.69.29.21.59.33.89.36s.59-.02.86-.15c.27-.13.51-.34.72-.64l.88.62c-.32.45-.7.77-1.14.96s-.91.26-1.4.19c-.49-.06-.96-.25-1.4-.57-.45-.32-.78-.69-.99-1.12-.21-.43-.3-.88-.27-1.34.03-.46.18-.89.46-1.28.2-.28.44-.52.73-.72.29-.2.67-.37,1.15-.52s1.1-.31,1.87-.47l3.01-.62.04-.06-3.55-2.51.58-.82,4.82,3.41Z" style=" stroke-width:0px;"/><path d="M25.06,103.02c.48.49.76,1.04.83,1.65.07.61-.06,1.26-.4,1.94-.33.68-.87,1.38-1.59,2.09-.72.71-1.43,1.22-2.12,1.54-.69.32-1.34.43-1.96.35-.61-.08-1.15-.37-1.63-.86-.48-.49-.75-1.04-.82-1.65-.07-.61.06-1.26.4-1.95.33-.69.86-1.38,1.58-2.09.73-.71,1.44-1.23,2.13-1.54.69-.32,1.34-.44,1.95-.35.61.08,1.15.37,1.63.86ZM24.34,103.72c-.48-.49-1.08-.64-1.82-.45s-1.54.71-2.41,1.56c-.58.57-1.01,1.11-1.3,1.63s-.43,1-.42,1.44c.01.44.17.82.49,1.14.47.48,1.08.63,1.82.44.74-.19,1.55-.71,2.42-1.56.58-.57,1.01-1.11,1.3-1.63.29-.52.42-1,.41-1.43-.01-.44-.18-.82-.5-1.14Z" style=" stroke-width:0px;"/><path d="M10.71,100.32l7.68-5.34.65.93-6.71,4.66.03.04,2.55,1.01-.95.66-2.61-1.03-.65-.93Z" style=" stroke-width:0px;"/><path d="M15.69,90.52l-9.27-.2-.07.03,2.08,4.35-.91.43-2.59-5.41.96-.46,9.28.18.51,1.07Z" style=" stroke-width:0px;"/><path d="M87.19,92.12h-5.98c-1.21,0-2.28-.79-2.63-1.95l-13.82-45.79c-.04-.15-.18-.25-.33-.25s-.29.1-.33.25l-6.55,21.7c6.52.75,11.59,6.29,11.59,13.02,0,.19-.16.35-.35.35h-15.28l-3.24,10.72c-.35,1.16-1.42,1.95-2.63,1.95h-5.98c-5.61,0-9.57-5.48-7.82-10.81l16.43-49.77c1.11-3.37,4.27-5.65,7.82-5.65h12.68c3.55,0,6.7,2.28,7.82,5.65l16.43,49.77c1.76,5.32-2.21,10.81-7.82,10.81Z" style=" stroke-width:0px;"/><rect x="3.63" y="57.62" width="3.35" height="16.4" style=" stroke-width:0px;"/><rect x="3.63" y="58.16" width="3.35" height="10.62" transform="translate(-58.16 68.78) rotate(-90)" style=" stroke-width:0px;"/></g></svg>